<!DOCTYPE svg PUBLIC "-//W3C//DTD SVG 1.1//EN" "http://www.w3.org/Graphics/SVG/1.1/DTD/svg11.dtd">
<!-- Uploaded to: SVG Repo, www.svgrepo.com, Transformed by: SVG Repo Mixer Tools -->
<svg height="256px" width="256px" version="1.1" id="Layer_1" xmlns="http://www.w3.org/2000/svg" xmlns:xlink="http://www.w3.org/1999/xlink" viewBox="0 0 399.141 399.141" xml:space="preserve" fill="#ffffff" stroke="#ffffff">
<g id="SVGRepo_bgCarrier" stroke-width="0"/>
<g id="SVGRepo_tracerCarrier" stroke-linecap="round" stroke-linejoin="round"/>
<g id="SVGRepo_iconCarrier"> <path style="fill:#ffffff;" d="M399.141,128.482L309.998,39.34l-89.143,89.142l28.285,28.285l51.741-51.742 c18.059,82.074-24.769,168.023-105.056,201.28c-57.514,23.824-121.894,16.075-172.213-20.725L0,317.868 c29.504,21.576,64.251,35.463,100.484,40.156c9.162,1.188,18.371,1.776,27.578,1.776c28.356-0.001,56.644-5.594,83.07-16.54 c53.507-22.163,95.18-63.836,117.343-117.343c12.699-30.658,18.107-63.097,16.254-95.277l26.126,26.127L399.141,128.482z"/> </g>
</svg>